PathFileType	4	(x/y/z)	A01_PREF_T0015.trc
DataRate	CameraRate	NumFrames	NumMarkers	Units	OrigDataRate	OrigDataStartFrame	OrigNumFrames
240	240	5	48	mm	240	217	288
Frame#	Time	TOP_HEAD			R_AC			L_AC			R_ASIS			L_ASIS			R_PSIS			L_PSIS			SACRAL			L_IC			R_IC			L_GT			R_GT			R_LAT_KNEE			R_MED_KNEE			L_MED_KNEE			L_LAT_KNEE			R_TOE			L_TOE			R_1ST_MET			L_1ST_MET			L_5TH_MET			R_5TH_MET			R_LAT_ANK			R_MED_ANK			L_MED_ANK			L_LAT_ANK			L_HEEL_SUP			R_HEEL_SUP			L_HEEL_LAT			R_HEEL_LAT			L_HEEL_MED			R_HEEL_MED			R_SHANK_PROX_POST			R_SHANK_PROX_ANT			R_SHANK_DIST_ANT			R_SHANK_DIST_POST			R_THIGH_PROX_POST			R_THIGH_PROX_ANT			R_THIGH_DIST_ANT			R_THIGH_DIST_POST			L_SHANK_PROX_ANT			L_SHANK_PROX_POST			L_SHANK_DIST_POST			L_SHANK_DIST_ANT			L_THIGH_PROX_ANT			L_THIGH_PROX_POST			L_THIGH_DIST_POST			L_THIGH_DIST_ANT			
		X1	Y1	Z1	X2	Y2	Z2	X3	Y3	Z3	X4	Y4	Z4	X5	Y5	Z5	X6	Y6	Z6	X7	Y7	Z7	X8	Y8	Z8	X9	Y9	Z9	X10	Y10	Z10	X11	Y11	Z11	X12	Y12	Z12	X13	Y13	Z13	X14	Y14	Z14	X15	Y15	Z15	X16	Y16	Z16	X17	Y17	Z17	X18	Y18	Z18	X19	Y19	Z19	X20	Y20	Z20	X21	Y21	Z21	X22	Y22	Z22	X23	Y23	Z23	X24	Y24	Z24	X25	Y25	Z25	X26	Y26	Z26	X27	Y27	Z27	X28	Y28	Z28	X29	Y29	Z29	X30	Y30	Z30	X31	Y31	Z31	X32	Y32	Z32	X33	Y33	Z33	X34	Y34	Z34	X35	Y35	Z35	X36	Y36	Z36	X37	Y37	Z37	X38	Y38	Z38	X39	Y39	Z39	X40	Y40	Z40	X41	Y41	Z41	X42	Y42	Z42	X43	Y43	Z43	X44	Y44	Z44	X45	Y45	Z45	X46	Y46	Z46	X47	Y47	Z47	X48	Y48	Z48	

217	0.90314	586.17	1793.7	376.66	409.75	1541.3	593.65	365.54	1566.7	135.4	410.32	1087.5	555.79	392.86	1036.3	203.08	184.85	1090.1	444.48	188.2	1089.7	312.27	171.52	1059.8	376.79	360.33	1158.4	165.9	379.73	1181.6	569.57	333.8	956.65	162.21	354.95	975.13	596.53	411.67	568.5	523.88	434.92	572.07	392.98	475.45	541.4	338.07	433.2	586.45	192.43	586.64	70.686	431.58	221.12	91.326	212.1	501.44	56.428	385.69	160.17	117.23	288.13	107.27	155.87	175.91	475.26	46.647	521.32	359.2	108.1	493.69	364.99	113.3	389.49	131.46	266.54	304.76	90.455	289.86	249.16	8.8673	306.93	315.94	259.06	72.887	439.47	-13.516	287.81	284.12	266.98	49.557	474.16	5.2133	268.96	342.18	269.01	46.375	413.22	315.17	395.49	530.23	387.22	383.96	542.09	386.79	309.87	523.24	327.93	314.21	518.94	334.5	828.68	573.43	398.82	858.11	581.7	417.1	768.77	569.55	354.99	742.25	559.13	410.93	494.31	195.06	370.08	532.56	198.78	324.1	490.05	211.09	368.18	458.27	205.38	434	827.6	188.73	364.82	819.81	171.33	391.27	747.72	177	455.11	756.11	191.35
218	0.90732	591.96	1794.6	375.71	415.4	1543	593.43	370.57	1567.7	135.22	415.66	1088.2	555.85	398.08	1038.1	203.07	190.13	1091.4	444.61	193.48	1091	312.43	176.81	1061.1	376.86	365.32	1159.7	165.93	385.14	1183.1	569.64	339.4	958.31	162.1	359.77	975.89	596.48	413.01	568.83	523.79	436.11	572.26	392.85	483.98	544.69	338.36	442.05	588.38	192.22	586.8	70.486	431.6	238.15	89.846	212.77	501.53	56.386	385.69	176.23	115.13	288.19	123.53	152.26	175.39	475.32	46.651	521.3	359.55	108.43	493.62	365.27	113.55	389.44	144.91	263.96	303.9	103.9	286.33	247.88	21.541	302.34	313.88	259.32	73.417	439.4	-0.21919	282.66	281.97	267.18	50.072	474.1	18.422	264.41	340.29	269.34	46.806	413.21	316.03	396.04	530.13	388.05	384.35	542	387.42	310.27	523.14	328.53	314.73	518.86	337.93	829.71	573.26	402.65	858.59	581.6	420.15	769.06	569.47	357.73	743.12	558.97	421.3	495.89	195.1	379.81	533.45	198.36	334.47	490.22	210.59	379.1	459.19	205.31	440.93	829.93	188.83	371.88	821.65	171.15	398.86	749.76	176.86	462.59	758.65	191.43
219	0.9115	597.72	1795.5	374.76	421.03	1544.6	593.2	375.59	1568.7	135.03	420.97	1088.9	555.93	403.29	1039.8	203.06	195.39	1092.6	444.71	198.76	1092.2	312.55	182.08	1062.3	376.89	370.33	1161.1	165.95	390.55	1184.5	569.7	345.02	959.94	161.99	364.55	976.63	596.41	414.32	569.18	523.69	437.31	572.47	392.72	492.37	547.96	338.69	450.76	590.27	192.05	586.96	70.291	431.61	255.38	88.355	213.46	501.61	56.343	385.69	192.47	112.96	288.26	139.99	148.56	174.88	475.39	46.657	521.29	359.9	108.78	493.56	365.55	113.81	389.39	158.47	261.24	303.03	117.47	282.64	246.59	34.34	297.54	311.78	259.58	73.982	439.34	13.232	277.29	279.8	267.37	50.629	474.05	31.776	259.65	338.37	269.64	47.269	413.21	316.86	396.61	530.01	388.83	384.75	541.91	388.03	310.69	523.05	329.12	315.27	518.77	341.34	830.74	573.09	406.46	859.08	581.5	423.18	769.36	569.38	360.44	743.99	558.8	431.59	497.44	195.17	389.44	534.29	197.97	344.79	490.3	210.12	389.97	460.07	205.27	447.8	832.23	188.94	378.88	823.47	170.99	406.37	751.78	176.75	470	761.15	191.53
220	0.91568	603.47	1796.4	373.79	426.64	1546.2	592.96	380.61	1569.6	134.84	426.23	1089.6	556.01	408.52	1041.4	203.07	200.64	1093.9	444.77	204.04	1093.4	312.64	187.36	1063.5	376.89	375.38	1162.4	165.95	395.94	1185.9	569.76	350.66	961.52	161.87	369.3	977.35	596.34	415.59	569.55	523.61	438.52	572.7	392.6	500.61	551.19	339.05	459.32	592.12	191.91	587.11	70.1	431.62	272.79	86.868	214.15	501.7	56.298	385.69	208.9	110.73	288.33	156.66	144.79	174.37	475.45	46.666	521.27	360.26	109.15	493.49	365.85	114.09	389.34	172.15	258.39	302.15	131.16	278.81	245.3	47.274	292.52	309.68	259.83	74.582	439.28	26.845	271.72	277.61	267.55	51.229	474.02	45.281	254.68	336.44	269.9	47.765	413.2	317.68	397.2	529.87	389.6	385.18	541.82	388.61	311.13	522.96	329.7	315.83	518.67	344.73	831.78	572.91	410.26	859.57	581.4	426.19	769.69	569.3	363.14	744.87	558.64	441.79	498.98	195.28	398.99	535.07	197.62	355.05	490.32	209.67	400.79	460.92	205.25	454.61	834.48	189.05	385.84	825.26	170.84	413.81	753.77	176.66	477.34	763.61	191.64
221	0.91986	609.19	1797.3	372.81	432.23	1547.7	592.71	385.62	1570.5	134.64	431.46	1090.3	556.1	413.75	1043.1	203.09	205.87	1095.1	444.79	209.33	1094.6	312.68	192.62	1064.7	376.85	380.46	1163.7	165.95	401.32	1187.2	569.81	356.33	963.07	161.76	374.02	978.06	596.26	416.83	569.93	523.52	439.75	572.94	392.49	508.72	554.37	339.44	467.74	593.92	191.8	587.27	69.913	431.64	290.38	85.4	214.82	501.79	56.253	385.68	225.5	108.46	288.39	173.52	140.96	173.84	475.53	46.678	521.24	360.63	109.54	493.42	366.15	114.39	389.29	185.94	255.42	301.28	144.98	274.85	244.01	60.349	287.29	307.57	260.08	75.22	439.23	40.623	265.94	275.42	267.71	51.873	473.99	58.945	249.5	334.51	270.13	48.3	413.2	318.47	397.81	529.73	390.35	385.63	541.73	389.18	311.59	522.88	330.28	316.41	518.56	348.1	832.82	572.72	414.05	860.07	581.29	429.17	770.03	569.2	365.82	745.76	558.46	451.89	500.49	195.41	408.44	535.79	197.29	365.26	490.27	209.24	411.55	461.73	205.26	461.38	836.68	189.17	392.75	827.01	170.71	421.18	755.72	176.57	484.6	766.01	191.77
